<svg width="12" height="9" viewBox="0 0 12 9" fill="none" xmlns="http://www.w3.org/2000/svg">
<path d="M2.42053 6.4965C2.46745 6.4965 2.51438 6.47933 2.55101 6.44461L4.74625 4.38519C4.82293 4.31346 4.82675 4.19252 4.75464 4.11584C4.68254 4.03839 4.56236 4.03496 4.48491 4.10744L2.28967 6.16687C2.21298 6.23859 2.20917 6.35953 2.28127 6.43622C2.31904 6.47628 2.3694 6.4965 2.42053 6.4965Z" fill="#9e9e9e"/>
<path d="M9.74826 6.49716C9.799 6.49716 9.84974 6.47694 9.88752 6.43688C9.95962 6.3602 9.95581 6.23926 9.87912 6.16753L7.68312 4.10811C7.60605 4.03638 7.48511 4.03944 7.41338 4.1165C7.34128 4.19319 7.34509 4.31413 7.42178 4.38585L9.61778 6.44528C9.65441 6.47999 9.70134 6.49716 9.74826 6.49716Z" fill="#9e9e9e"/>
<path d="M1.12222 8.41128H11.0462C11.5719 8.41128 12 7.9836 12 7.45749V0.95379C12 0.427679 11.5719 0 11.0462 0H1.12222C0.596489 0 0.168429 0.427679 0.168429 0.95379V7.45749C0.168429 7.9836 0.596489 8.41128 1.12222 8.41128ZM11.0462 0.381516C11.3617 0.381516 11.6185 0.638276 11.6185 0.95379V7.45749C11.6185 7.773 11.3617 8.02976 11.0462 8.02976H1.12222C0.806705 8.02976 0.549945 7.773 0.549945 7.45749V0.95379C0.549945 0.638276 0.806705 0.381516 1.12222 0.381516H11.0462Z" fill="#9e9e9e"/>
<path d="M6.08419 5.16423C6.3379 5.16423 6.5916 5.07991 6.78465 4.91166L11.6833 0.638305C11.7627 0.569251 11.7711 0.448691 11.702 0.368955C11.6322 0.289599 11.512 0.282351 11.4327 0.350642L6.534 4.62362C6.29021 4.83612 5.87817 4.83612 5.63476 4.62362L0.742201 0.357509C0.663227 0.288455 0.543049 0.296085 0.47285 0.375822C0.403796 0.455559 0.411808 0.575736 0.491163 0.645172L5.38372 4.91128C5.57715 5.07991 5.83048 5.16423 6.08419 5.16423Z" fill="#9e9e9e"/>
</svg>
